<?xml version="1.0" encoding="UTF-8" standalone="no"?>
<!DOCTYPE svg PUBLIC "-//W3C//DTD SVG 1.1//EN" "http://www.w3.org/Graphics/SVG/1.1/DTD/svg11.dtd">
<svg width="100%" height="100%" viewBox="0 0 1920 1080" version="1.1" xmlns="http://www.w3.org/2000/svg" xmlns:xlink="http://www.w3.org/1999/xlink" xml:space="preserve" xmlns:serif="http://www.serif.com/" style="fill-rule:evenodd;clip-rule:evenodd;stroke-linecap:round;stroke-linejoin:round;stroke-miterlimit:1.5;">
    <rect id="Artboard1" x="0" y="0" width="1920" height="1080" style="fill:none;"/>
    <clipPath id="_clip1">
        <rect id="Artboard11" serif:id="Artboard1" x="0" y="0" width="1920" height="1080"/>
    </clipPath>
    <g clip-path="url(#_clip1)">
        <g transform="matrix(0.164392,0,0,0.164392,1762.69,44.0129)">
            <path d="M243.038,228.947C243.038,207.964 226.002,190.928 205.019,190.928L128.981,190.928C107.998,190.928 90.962,207.964 90.962,228.947L90.962,304.985C90.962,325.968 107.998,343.004 128.981,343.004L205.019,343.004C226.002,343.004 243.038,325.968 243.038,304.985L243.038,228.947Z" style="fill:none;stroke:rgb(229,95,93);stroke-width:30.42px;"/>
        </g>
        <g transform="matrix(0.37213,-0.323637,0.323637,0.37213,1726.26,870.903)">
            <path d="M243.038,228.947C243.038,207.964 226.002,190.928 205.019,190.928L128.981,190.928C107.998,190.928 90.962,207.964 90.962,228.947L90.962,304.985C90.962,325.968 107.998,343.004 128.981,343.004L205.019,343.004C226.002,343.004 243.038,325.968 243.038,304.985L243.038,228.947Z" style="fill:none;stroke:rgb(250,132,85);stroke-width:10.14px;"/>
        </g>
        <g transform="matrix(-0.167925,0.282666,-0.282666,-0.167925,193.019,129.262)">
            <path d="M243.038,228.947C243.038,207.964 226.002,190.928 205.019,190.928L128.981,190.928C107.998,190.928 90.962,207.964 90.962,228.947L90.962,304.985C90.962,325.968 107.998,343.004 128.981,343.004L205.019,343.004C226.002,343.004 243.038,325.968 243.038,304.985L243.038,228.947Z" style="fill:none;stroke:rgb(255,198,112);stroke-width:15.21px;"/>
        </g>
        <g transform="matrix(0.598139,-0.273174,0.273174,0.598139,1701.27,-70.1858)">
            <path d="M243.038,228.947C243.038,207.964 226.002,190.928 205.019,190.928L128.981,190.928C107.998,190.928 90.962,207.964 90.962,228.947L90.962,304.985C90.962,325.968 107.998,343.004 128.981,343.004L205.019,343.004C226.002,343.004 243.038,325.968 243.038,304.985L243.038,228.947Z" style="fill:none;stroke:rgb(81,205,153);stroke-width:7.6px;"/>
        </g>
        <g transform="matrix(0.164392,0,0,0.164392,-3.58666,863.988)">
            <path d="M243.038,228.947C243.038,207.964 226.002,190.928 205.019,190.928L128.981,190.928C107.998,190.928 90.962,207.964 90.962,228.947L90.962,304.985C90.962,325.968 107.998,343.004 128.981,343.004L205.019,343.004C226.002,343.004 243.038,325.968 243.038,304.985L243.038,228.947Z" style="fill:none;stroke:rgb(127,214,216);stroke-width:30.42px;"/>
        </g>
        <g transform="matrix(0.459377,0.179429,-0.179429,0.459377,1629.34,884.357)">
            <path d="M243.038,228.947C243.038,207.964 226.002,190.928 205.019,190.928L128.981,190.928C107.998,190.928 90.962,207.964 90.962,228.947L90.962,304.985C90.962,325.968 107.998,343.004 128.981,343.004L205.019,343.004C226.002,343.004 243.038,325.968 243.038,304.985L243.038,228.947Z" style="fill:none;stroke:rgb(142,151,218);stroke-width:10.14px;"/>
        </g>
        <g transform="matrix(0.187841,-0.269841,0.269841,0.187841,0.0540037,938.077)">
            <path d="M243.038,228.947C243.038,207.964 226.002,190.928 205.019,190.928L128.981,190.928C107.998,190.928 90.962,207.964 90.962,228.947L90.962,304.985C90.962,325.968 107.998,343.004 128.981,343.004L205.019,343.004C226.002,343.004 243.038,325.968 243.038,304.985L243.038,228.947Z" style="fill:none;stroke:rgb(227,174,201);stroke-width:15.21px;"/>
        </g>
        <g transform="matrix(0.273999,0.410056,-0.410056,0.273999,1915.28,24.8847)">
            <path d="M243.038,228.947C243.038,207.964 226.002,190.928 205.019,190.928L128.981,190.928C107.998,190.928 90.962,207.964 90.962,228.947L90.962,304.985C90.962,325.968 107.998,343.004 128.981,343.004L205.019,343.004C226.002,343.004 243.038,325.968 243.038,304.985L243.038,228.947Z" style="fill:none;stroke:rgb(184,186,180);stroke-width:10.14px;"/>
        </g>
        <g transform="matrix(0.575904,0.317379,-0.317379,0.575904,367.063,840.546)">
            <path d="M243.038,228.947C243.038,207.964 226.002,190.928 205.019,190.928L128.981,190.928C107.998,190.928 90.962,207.964 90.962,228.947L90.962,304.985C90.962,325.968 107.998,343.004 128.981,343.004L205.019,343.004C226.002,343.004 243.038,325.968 243.038,304.985L243.038,228.947Z" style="fill:none;stroke:rgb(240,240,239);stroke-width:7.6px;"/>
        </g>
        <g transform="matrix(0.639867,0,0,0.639867,-49.2617,-190.648)">
            <circle cx="153.358" cy="381.967" r="58.606" style="fill:none;stroke:rgb(229,95,93);stroke-width:7.81px;"/>
        </g>
        <g transform="matrix(0.213289,0,0,0.213289,1872.39,46.1371)">
            <circle cx="153.358" cy="381.967" r="58.606" style="fill:none;stroke:rgb(250,132,85);stroke-width:23.44px;"/>
        </g>
        <g transform="matrix(0.853156,0,0,0.853156,1766.33,727.274)">
            <circle cx="153.358" cy="381.967" r="58.606" style="fill:none;stroke:rgb(255,198,112);stroke-width:5.86px;"/>
        </g>
        <g transform="matrix(1.02727,0.849994,-0.849994,1.02727,311.793,351.534)">
            <path d="M132.252,466.492L169.752,541.492L94.752,541.492L132.252,466.492Z" style="fill:none;stroke:rgb(229,95,93);stroke-width:3.75px;"/>
        </g>
        <g transform="matrix(-0.257358,0.614989,-0.614989,-0.257358,480.033,57.3327)">
            <path d="M132.252,466.492L169.752,541.492L94.752,541.492L132.252,466.492Z" style="fill:none;stroke:rgb(250,132,85);stroke-width:7.5px;"/>
        </g>
        <g transform="matrix(0.733475,-0.679717,0.679717,0.733475,-257.974,731.815)">
            <path d="M132.252,466.492L169.752,541.492L94.752,541.492L132.252,466.492Z" style="fill:none;stroke:rgb(255,198,112);stroke-width:5px;"/>
        </g>
        <g transform="matrix(-0.763842,0.645404,-0.645404,-0.763842,2088.31,326.427)">
            <path d="M132.252,466.492L169.752,541.492L94.752,541.492L132.252,466.492Z" style="fill:none;stroke:rgb(81,205,153);stroke-width:5px;"/>
        </g>
        <g transform="matrix(0.450153,-0.491738,0.491738,0.450153,1504.48,816.441)">
            <path d="M132.252,466.492L169.752,541.492L94.752,541.492L132.252,466.492Z" style="fill:none;stroke:rgb(127,214,216);stroke-width:7.5px;"/>
        </g>
        <g transform="matrix(0.513261,0.42545,-0.42545,0.513261,2048.19,-60.7965)">
            <path d="M132.252,466.492L169.752,541.492L94.752,541.492L132.252,466.492Z" style="fill:none;stroke:rgb(142,151,218);stroke-width:7.5px;"/>
        </g>
        <g transform="matrix(1.28718,-0.347758,0.347758,1.28718,1410.38,429.273)">
            <path d="M132.252,466.492L169.752,541.492L94.752,541.492L132.252,466.492Z" style="fill:none;stroke:rgb(227,174,201);stroke-width:3.75px;"/>
        </g>
        <g transform="matrix(0.333333,0,0,0.333333,-20.2172,-51.7376)">
            <path d="M132.252,466.492L169.752,541.492L94.752,541.492L132.252,466.492Z" style="fill:none;stroke:rgb(184,186,180);stroke-width:15px;"/>
        </g>
        <g transform="matrix(-0.543773,-0.839232,0.839232,-0.543773,-160.471,415.494)">
            <path d="M132.252,466.492L169.752,541.492L94.752,541.492L132.252,466.492Z" style="fill:none;stroke:rgb(240,240,239);stroke-width:5px;"/>
        </g>
        <g transform="matrix(0.213289,0,0,0.213289,89.6725,-8.95941)">
            <circle cx="153.358" cy="381.967" r="58.606" style="fill:none;stroke:rgb(81,205,153);stroke-width:23.44px;"/>
        </g>
        <g transform="matrix(0.639867,0,0,0.639867,1654.52,-232.942)">
            <circle cx="153.358" cy="381.967" r="58.606" style="fill:none;stroke:rgb(127,214,216);stroke-width:7.81px;"/>
        </g>
        <g transform="matrix(0.213289,0,0,0.213289,244.362,970.612)">
            <circle cx="153.358" cy="381.967" r="58.606" style="fill:none;stroke:rgb(142,151,218);stroke-width:23.44px;"/>
        </g>
        <g transform="matrix(0.426578,0,0,0.426578,-40.419,23.0423)">
            <circle cx="153.358" cy="381.967" r="58.606" style="fill:none;stroke:rgb(227,174,201);stroke-width:11.72px;"/>
        </g>
        <g transform="matrix(0.853156,0,0,0.853156,-27.5032,722.601)">
            <circle cx="153.358" cy="381.967" r="58.606" style="fill:none;stroke:rgb(184,186,180);stroke-width:5.86px;"/>
        </g>
        <g transform="matrix(0.426578,0,0,0.426578,1508.3,915.773)">
            <circle cx="153.358" cy="381.967" r="58.606" style="fill:none;stroke:rgb(240,240,239);stroke-width:11.72px;"/>
        </g>
    </g>
</svg>
