<?xml version="1.0" encoding="UTF-8" standalone="no"?>
<!DOCTYPE svg PUBLIC "-//W3C//DTD SVG 1.1//EN" "http://www.w3.org/Graphics/SVG/1.1/DTD/svg11.dtd">
<svg width="100%" height="100%" viewBox="0 0 960 540" version="1.1" xmlns="http://www.w3.org/2000/svg" xmlns:xlink="http://www.w3.org/1999/xlink" xml:space="preserve" xmlns:serif="http://www.serif.com/" style="fill-rule:evenodd;clip-rule:evenodd;stroke-linecap:round;stroke-linejoin:round;stroke-miterlimit:1.5;">
    <rect id="Artboard1" x="0" y="0" width="960" height="540" style="fill:none;"/>
    <g id="Artboard11" serif:id="Artboard1">
        <g transform="matrix(0.698029,-0.694891,0.694891,0.698029,-252.447,-54.3277)">
            <path d="M159.062,250.963C159.062,247.461 156.219,244.618 152.717,244.618L140.026,244.618C136.523,244.618 133.68,247.461 133.68,250.963L133.68,263.654C133.68,267.157 136.523,270 140.026,270L152.717,270C156.219,270 159.062,267.157 159.062,263.654L159.062,250.963Z" style="fill:none;stroke:rgb(229,95,93);stroke-opacity:0.25;stroke-width:2.54px;"/>
        </g>
        <g transform="matrix(1.72435,-0.952412,0.952412,1.72435,372.683,148.157)">
            <path d="M159.062,250.963C159.062,247.461 156.219,244.618 152.717,244.618L140.026,244.618C136.523,244.618 133.68,247.461 133.68,250.963L133.68,263.654C133.68,267.157 136.523,270 140.026,270L152.717,270C156.219,270 159.062,267.157 159.062,263.654L159.062,250.963Z" style="fill:none;stroke:rgb(229,95,93);stroke-opacity:0.25;stroke-width:1.27px;"/>
        </g>
        <g transform="matrix(0.829347,0.531321,-0.531321,0.829347,175.002,12.8268)">
            <path d="M159.062,250.963C159.062,247.461 156.219,244.618 152.717,244.618L140.026,244.618C136.523,244.618 133.68,247.461 133.68,250.963L133.68,263.654C133.68,267.157 136.523,270 140.026,270L152.717,270C156.219,270 159.062,267.157 159.062,263.654L159.062,250.963Z" style="fill:none;stroke:rgb(250,132,85);stroke-opacity:0.25;stroke-width:2.54px;"/>
        </g>
        <g transform="matrix(0.984946,0,0,0.984946,-105.913,250.517)">
            <path d="M159.062,250.963C159.062,247.461 156.219,244.618 152.717,244.618L140.026,244.618C136.523,244.618 133.68,247.461 133.68,250.963L133.68,263.654C133.68,267.157 136.523,270 140.026,270L152.717,270C156.219,270 159.062,267.157 159.062,263.654L159.062,250.963Z" style="fill:none;stroke:rgb(250,132,85);stroke-opacity:0.25;stroke-width:2.54px;"/>
        </g>
        <g transform="matrix(0.914039,0.366948,-0.366948,0.914039,78.9417,-250.244)">
            <path d="M159.062,250.963C159.062,247.461 156.219,244.618 152.717,244.618L140.026,244.618C136.523,244.618 133.68,247.461 133.68,250.963L133.68,263.654C133.68,267.157 136.523,270 140.026,270L152.717,270C156.219,270 159.062,267.157 159.062,263.654L159.062,250.963Z" style="fill:none;stroke:rgb(255,198,112);stroke-opacity:0.25;stroke-width:2.54px;"/>
        </g>
        <g transform="matrix(1.96989,0,0,1.96989,-138.771,-369.115)">
            <path d="M159.062,250.963C159.062,247.461 156.219,244.618 152.717,244.618L140.026,244.618C136.523,244.618 133.68,247.461 133.68,250.963L133.68,263.654C133.68,267.157 136.523,270 140.026,270L152.717,270C156.219,270 159.062,267.157 159.062,263.654L159.062,250.963Z" style="fill:none;stroke:rgb(255,198,112);stroke-opacity:0.25;stroke-width:1.27px;"/>
        </g>
        <g transform="matrix(0.481406,0.859282,-0.859282,0.481406,994.321,-133.145)">
            <path d="M159.062,250.963C159.062,247.461 156.219,244.618 152.717,244.618L140.026,244.618C136.523,244.618 133.68,247.461 133.68,250.963L133.68,263.654C133.68,267.157 136.523,270 140.026,270L152.717,270C156.219,270 159.062,267.157 159.062,263.654L159.062,250.963Z" style="fill:none;stroke:rgb(81,205,153);stroke-opacity:0.25;stroke-width:2.54px;"/>
        </g>
        <g transform="matrix(0.930368,-0.323317,0.323317,0.930368,31.4419,-40.1057)">
            <path d="M159.062,250.963C159.062,247.461 156.219,244.618 152.717,244.618L140.026,244.618C136.523,244.618 133.68,247.461 133.68,250.963L133.68,263.654C133.68,267.157 136.523,270 140.026,270L152.717,270C156.219,270 159.062,267.157 159.062,263.654L159.062,250.963Z" style="fill:none;stroke:rgb(127,214,216);stroke-opacity:0.25;stroke-width:2.54px;"/>
        </g>
        <g transform="matrix(0.984946,0,0,0.984946,769.115,245.563)">
            <path d="M159.062,250.963C159.062,247.461 156.219,244.618 152.717,244.618L140.026,244.618C136.523,244.618 133.68,247.461 133.68,250.963L133.68,263.654C133.68,267.157 136.523,270 140.026,270L152.717,270C156.219,270 159.062,267.157 159.062,263.654L159.062,250.963Z" style="fill:none;stroke:rgb(127,214,216);stroke-opacity:0.25;stroke-width:2.54px;"/>
        </g>
        <g transform="matrix(0.917574,-0.358017,0.358017,0.917574,-184.653,24.0822)">
            <path d="M159.062,250.963C159.062,247.461 156.219,244.618 152.717,244.618L140.026,244.618C136.523,244.618 133.68,247.461 133.68,250.963L133.68,263.654C133.68,267.157 136.523,270 140.026,270L152.717,270C156.219,270 159.062,267.157 159.062,263.654L159.062,250.963Z" style="fill:none;stroke:rgb(142,151,218);stroke-opacity:0.25;stroke-width:2.54px;"/>
        </g>
        <g transform="matrix(0.984946,0,0,0.984946,643.495,-75.1143)">
            <path d="M159.062,250.963C159.062,247.461 156.219,244.618 152.717,244.618L140.026,244.618C136.523,244.618 133.68,247.461 133.68,250.963L133.68,263.654C133.68,267.157 136.523,270 140.026,270L152.717,270C156.219,270 159.062,267.157 159.062,263.654L159.062,250.963Z" style="fill:none;stroke:rgb(142,151,218);stroke-opacity:0.25;stroke-width:2.54px;"/>
        </g>
        <g transform="matrix(0.860487,0.479249,-0.479249,0.860487,292.644,-264.968)">
            <path d="M159.062,250.963C159.062,247.461 156.219,244.618 152.717,244.618L140.026,244.618C136.523,244.618 133.68,247.461 133.68,250.963L133.68,263.654C133.68,267.157 136.523,270 140.026,270L152.717,270C156.219,270 159.062,267.157 159.062,263.654L159.062,250.963Z" style="fill:none;stroke:rgb(227,174,201);stroke-opacity:0.25;stroke-width:2.54px;"/>
        </g>
        <g transform="matrix(1.06228,0,0,1.06228,678.634,-337.692)">
            <circle cx="141.48" cy="350.851" r="11.767" style="fill:none;stroke:rgb(229,95,93);stroke-opacity:0.25;stroke-width:2.35px;"/>
        </g>
        <g transform="matrix(1.06228,0,0,1.06228,442.981,137.705)">
            <circle cx="141.48" cy="350.851" r="11.767" style="fill:none;stroke:rgb(229,95,93);stroke-opacity:0.25;stroke-width:2.35px;"/>
        </g>
        <g transform="matrix(2.12456,0,0,2.12456,-249.829,-397.153)">
            <circle cx="141.48" cy="350.851" r="11.767" style="fill:none;stroke:rgb(255,198,112);stroke-opacity:0.25;stroke-width:1.18px;"/>
        </g>
        <g transform="matrix(1.06228,0,0,1.06228,302.471,-343.318)">
            <circle cx="141.48" cy="350.851" r="11.767" style="fill:none;stroke:rgb(255,198,112);stroke-opacity:0.25;stroke-width:2.35px;"/>
        </g>
        <g transform="matrix(1.06228,0,0,1.06228,-104.816,-256.658)">
            <circle cx="141.48" cy="350.851" r="11.767" style="fill:none;stroke:rgb(127,214,216);stroke-opacity:0.25;stroke-width:2.35px;"/>
        </g>
        <g transform="matrix(1.06228,0,0,1.06228,259.047,85.8929)">
            <circle cx="141.48" cy="350.851" r="11.767" style="fill:none;stroke:rgb(127,214,216);stroke-opacity:0.25;stroke-width:2.35px;"/>
        </g>
        <g transform="matrix(1.06228,0,0,1.06228,631.121,-14.9027)">
            <circle cx="141.48" cy="350.851" r="11.767" style="fill:none;stroke:rgb(250,132,85);stroke-opacity:0.25;stroke-width:2.35px;"/>
        </g>
        <g transform="matrix(1.06228,0,0,1.06228,574.825,-307.364)">
            <circle cx="141.48" cy="350.851" r="11.767" style="fill:none;stroke:rgb(250,132,85);stroke-opacity:0.25;stroke-width:2.35px;"/>
        </g>
        <g transform="matrix(1.06228,0,0,1.06228,59.2367,-307.166)">
            <circle cx="141.48" cy="350.851" r="11.767" style="fill:none;stroke:rgb(81,205,153);stroke-opacity:0.25;stroke-width:2.35px;"/>
        </g>
        <g transform="matrix(1.06228,0,0,1.06228,685.541,-102.703)">
            <circle cx="141.48" cy="350.851" r="11.767" style="fill:none;stroke:rgb(81,205,153);stroke-opacity:0.25;stroke-width:2.35px;"/>
        </g>
        <g transform="matrix(1.06228,0,0,1.06228,398.144,40.4192)">
            <circle cx="141.48" cy="350.851" r="11.767" style="fill:none;stroke:rgb(142,151,218);stroke-opacity:0.25;stroke-width:2.35px;"/>
        </g>
        <g transform="matrix(1.06228,0,0,1.06228,616.767,103.274)">
            <circle cx="141.48" cy="350.851" r="11.767" style="fill:none;stroke:rgb(142,151,218);stroke-opacity:0.25;stroke-width:2.35px;"/>
        </g>
        <g transform="matrix(1.06228,0,0,1.06228,357.272,-257.916)">
            <circle cx="141.48" cy="350.851" r="11.767" style="fill:none;stroke:rgb(227,174,201);stroke-opacity:0.25;stroke-width:2.35px;"/>
        </g>
        <g transform="matrix(0.165769,-0.407623,0.391492,0.159209,178.871,108.216)">
            <path d="M178.887,354.634L207.294,413.787L150.481,413.787L178.887,354.634Z" style="fill:none;stroke:rgb(127,214,216);stroke-opacity:0.25;stroke-width:5.79px;"/>
        </g>
        <g transform="matrix(0.440041,0,0,0.422627,-24.4431,268.469)">
            <path d="M178.887,354.634L207.294,413.787L150.481,413.787L178.887,354.634Z" style="fill:none;stroke:rgb(127,214,216);stroke-opacity:0.25;stroke-width:5.79px;"/>
        </g>
        <g transform="matrix(0.3797,-0.222404,0.213603,0.364675,748.684,218.322)">
            <path d="M178.887,354.634L207.294,413.787L150.481,413.787L178.887,354.634Z" style="fill:none;stroke:rgb(229,95,93);stroke-opacity:0.25;stroke-width:5.79px;"/>
        </g>
        <g transform="matrix(0.248206,0.363359,-0.34898,0.238383,331.3,234.184)">
            <path d="M178.887,354.634L207.294,413.787L150.481,413.787L178.887,354.634Z" style="fill:none;stroke:rgb(81,205,153);stroke-opacity:0.25;stroke-width:5.79px;"/>
        </g>
        <g transform="matrix(0.440041,0,0,0.422627,574.708,-72.591)">
            <path d="M178.887,354.634L207.294,413.787L150.481,413.787L178.887,354.634Z" style="fill:none;stroke:rgb(81,205,153);stroke-opacity:0.25;stroke-width:5.79px;"/>
        </g>
        <g transform="matrix(-0.13844,-0.417696,0.401167,-0.132962,144.607,620.236)">
            <path d="M178.887,354.634L207.294,413.787L150.481,413.787L178.887,354.634Z" style="fill:none;stroke:rgb(255,198,112);stroke-opacity:0.25;stroke-width:5.79px;"/>
        </g>
        <g transform="matrix(0.440041,0,0,0.422627,821.873,15.9432)">
            <path d="M178.887,354.634L207.294,413.787L150.481,413.787L178.887,354.634Z" style="fill:none;stroke:rgb(255,198,112);stroke-opacity:0.25;stroke-width:5.79px;"/>
        </g>
        <g transform="matrix(0.216752,0.382955,-0.3678,0.208175,698.89,-115.343)">
            <path d="M178.887,354.634L207.294,413.787L150.481,413.787L178.887,354.634Z" style="fill:none;stroke:rgb(142,151,218);stroke-opacity:0.25;stroke-width:5.79px;"/>
        </g>
        <g transform="matrix(-0.743459,-0.47097,0.452332,-0.714038,96.2691,789.438)">
            <path d="M178.887,354.634L207.294,413.787L150.481,413.787L178.887,354.634Z" style="fill:none;stroke:rgb(227,174,201);stroke-opacity:0.25;stroke-width:2.9px;"/>
        </g>
        <g transform="matrix(0.440041,0,0,0.422627,595.734,263.244)">
            <path d="M178.887,354.634L207.294,413.787L150.481,413.787L178.887,354.634Z" style="fill:none;stroke:rgb(227,174,201);stroke-opacity:0.25;stroke-width:5.79px;"/>
        </g>
        <g transform="matrix(0.469717,0.744251,-0.714799,0.451129,1104.54,-258.955)">
            <path d="M178.887,354.634L207.294,413.787L150.481,413.787L178.887,354.634Z" style="fill:none;stroke:rgb(250,132,85);stroke-opacity:0.25;stroke-width:2.9px;"/>
        </g>
    </g>
</svg>
